<?xml version="1.0" encoding="UTF-8"?>
<svg id="_图层_1" data-name="图层 1" xmlns="http://www.w3.org/2000/svg" viewBox="0 0 130.51 25.22">
  <defs>
    <style>
      .cls-1 {
        fill: #0d1821;
      }
    </style>
  </defs>
  <rect class="cls-1" width="19.73" height="5.22"/>
  <polygon class="cls-1" points="18.28 15.14 23.12 15.14 20.65 7.59 18.28 15.14"/>
  <polygon class="cls-1" points="16.73 19.59 24.52 19.59 25.63 22.68 15.67 22.68 16.73 19.59"/>
  <path class="cls-1" d="M22.8,.48l7.25,21.91,18.5,.22,.15-4.35h-14.44V.7s-11.28-.04-11.46-.22Z"/>
  <rect class="cls-1" x="51.68" y=".48" width="18.93" height="4.43"/>
  <rect class="cls-1" x="54.65" y="9.19" width="11.46" height="4.79"/>
  <rect class="cls-1" x="51.68" y=".48" width="4.28" height="22.13"/>
  <rect class="cls-1" x="52.91" y="18.09" width="17.77" height="4.5"/>
  <rect class="cls-1" x="7.68" y="3.02" width="4.79" height="22.2"/>
  <rect class="cls-1" x="75.43" y=".48" width="4.79" height="22.2"/>
  <rect class="cls-1" x="89.62" y=".56" width="4.79" height="22.2"/>
  <rect class="cls-1" x="77.79" y="9.41" width="13.64" height="4.35"/>
  <path class="cls-1" d="M97.61,.48c0,.13-.01,.25-.01,.38V12.43c0,3.2,2.48,5.82,5.51,5.82h0c3.03,0,5.51-2.62,5.51-5.82V.87c0-.13,0-.26-.01-.38h-11Z"/>
  <path class="cls-1" d="M126.83,1.42c-1.02-.58-2.16-.89-3.33-.9l-11.69-.13-.03,13.06c0,4.06-2.79,7.58-6.73,8.54l-2.86,.69,21.68-.13c1.91-.01,3.74-.79,5.04-2.19,1.57-1.7,2.57-4.51-.08-8.84,0,0,4.86-6.19-2-10.09Zm-2.78,16.82h-8.22v-4.84h8.22c.66,0,1.27,.27,1.71,.71,.44,.44,.71,1.04,.71,1.71,0,1.33-1.09,2.42-2.42,2.42Zm0-8.75h-8.22V4.64h8.22c.66,0,1.27,.27,1.71,.71,.44,.44,.71,1.04,.71,1.71,0,1.33-1.09,2.42-2.42,2.42Z"/>
</svg>